<?xml version="1.0" encoding="UTF-8"?>
<svg width="16px" height="16px" viewBox="0 0 16 16" version="1.1" xmlns="http://www.w3.org/2000/svg" xmlns:xlink="http://www.w3.org/1999/xlink">
    <title>切片</title>
    <g id="确定稿件" stroke="none" stroke-width="1" fill="none" fill-rule="evenodd" opacity="0.87">
        <g id="Wallet--Profiler-默认" transform="translate(-1648.000000, -308.000000)" fill="#FFFFFF">
            <g id="编组-10" transform="translate(240.000000, 284.000000)">
                <g id="编组-17" transform="translate(1373.000000, 21.000000)">
                    <g id="箭头" transform="translate(35.000000, 3.000000)">
                        <g id="编组" transform="translate(1.500000, 2.000000)">
                            <path d="M14.2481166,3.21848778 C14.1092005,3.07864271 13.9202315,3 13.7231166,3 C13.5260016,3 13.3370326,3.07864271 13.1981166,3.21848778 L9.19811655,7.21848778 L5.19811655,3.21848778 C4.91520941,2.9591908 4.4810237,2.9591908 4.19811655,3.21848778 C3.93396115,3.49948755 3.93396115,3.937488 4.19811655,4.21848778 L8.70811655,8.72848778 C8.82159577,8.87192042 8.98670503,8.96524305 9.16811655,8.98849604 C9.36718301,8.9894277 9.55823268,8.91012406 9.69811655,8.76848778 L14.2081166,4.25848778 C14.3527748,4.12672186 14.4384781,3.94239714 14.4459984,3.74686785 C14.4535188,3.55133855 14.3822266,3.36097555 14.2481166,3.21848778 L14.2481166,3.21848778 Z" id="路径" fill-rule="nonzero" transform="translate(9.223269, 5.994248) rotate(-90.000000) translate(-9.223269, -5.994248) "></path>
                            <rect id="矩形" x="0" y="5.3" width="11" height="1.5" rx="0.75"></rect>
                        </g>
                    </g>
                </g>
            </g>
        </g>
    </g>
</svg>